<?xml version="1.0" encoding="utf-8"?>
<!-- Generator: Adobe Illustrator 23.0.4, SVG Export Plug-In . SVG Version: 6.00 Build 0)  -->
<svg version="1.1" id="Слой_1" xmlns="http://www.w3.org/2000/svg" xmlns:xlink="http://www.w3.org/1999/xlink" x="0px" y="0px"
	 viewBox="0 0 22 22" style="enable-background:new 0 0 22 22;" xml:space="preserve">
<style type="text/css">
	.st0{fill:#D6D6D6;}
</style>
<path class="st0" d="M17,22H5c-2.8,0-5-2.2-5-5V5c0-2.8,2.2-5,5-5h12c2.8,0,5,2.2,5,5v12C22,19.8,19.8,22,17,22z M5,2
	C3.3,2,2,3.3,2,5v12c0,1.7,1.3,3,3,3h12c1.7,0,3-1.3,3-3V5c0-1.7-1.3-3-3-3H5z"/>
</svg>
