<?xml version="1.0" encoding="utf-8"?>
<!-- Generator: Adobe Illustrator 23.0.4, SVG Export Plug-In . SVG Version: 6.00 Build 0)  -->
<svg version="1.1" id="Слой_1" xmlns="http://www.w3.org/2000/svg" xmlns:xlink="http://www.w3.org/1999/xlink" x="0px" y="0px"
	 viewBox="0 0 22 22" style="enable-background:new 0 0 22 22;" xml:space="preserve">
<style type="text/css">
	.st0{fill:#4DA0F7;}
</style>
<path class="st0" d="M17,22H5c-2.8,0-5-2.2-5-5V5c0-2.8,2.2-5,5-5h12c2.8,0,5,2.2,5,5v12C22,19.8,19.8,22,17,22z M5,2
	C3.3,2,2,3.3,2,5v12c0,1.7,1.3,3,3,3h12c1.7,0,3-1.3,3-3V5c0-1.7-1.3-3-3-3H5z"/>
<path class="st0" d="M9.5,15c-0.3,0-0.5-0.1-0.7-0.3l-3-3c-0.4-0.4-0.4-1,0-1.4s1-0.4,1.4,0l2.3,2.3l5.3-5.3c0.4-0.4,1-0.4,1.4,0
	s0.4,1,0,1.4l-6,6C10,14.9,9.8,15,9.5,15z"/>
</svg>
