<?xml version="1.0" encoding="utf-8"?>
<!-- Generator: Adobe Illustrator 23.0.4, SVG Export Plug-In . SVG Version: 6.00 Build 0)  -->
<svg version="1.1" id="Слой_1" xmlns="http://www.w3.org/2000/svg" xmlns:xlink="http://www.w3.org/1999/xlink" x="0px" y="0px"
	 viewBox="0 0 20 20" style="enable-background:new 0 0 20 20;" xml:space="preserve">
<style type="text/css">
	.st0{fill:#20201E;}
</style>
<g>
	<path class="st0" d="M19.9,9.6C19.2,8,16.2,2.9,10,2.7C3.8,2.9,0.8,8,0.1,9.6C0,9.8,0,10.2,0.1,10.4c0.7,1.6,3.7,6.7,9.9,6.9
		c6.2-0.2,9.1-5.3,9.9-6.9C20,10.2,20,9.8,19.9,9.6z M10,15.3c-4.5-0.1-6.9-3.5-7.9-5.3c1-1.8,3.4-5.2,7.9-5.3
		c4.5,0.1,6.9,3.5,7.9,5.3C16.9,11.8,14.5,15.2,10,15.3z"/>
	<path class="st0" d="M10,7c-1.7,0-3,1.3-3,3s1.3,3,3,3s3-1.3,3-3S11.7,7,10,7z M10,11c-0.6,0-1-0.4-1-1s0.4-1,1-1s1,0.4,1,1
		S10.6,11,10,11z"/>
</g>
</svg>
